<svg id="Ebene_1" data-name="Ebene 1" xmlns="http://www.w3.org/2000/svg" viewBox="0 0 338 142"><defs><style>.cls-1{fill:#fff;}</style></defs><title>uni_leipzig_logo_v2_white</title><polygon class="cls-1" points="288.46 49.39 288.46 51.42 292.68 51.42 292.68 67.2 294.89 67.2 294.89 51.42 299.12 51.42 299.12 49.39 288.46 49.39"/><polygon class="cls-1" points="273.6 49.39 262.95 49.39 262.95 51.42 267.17 51.42 267.17 67.2 269.38 67.2 269.38 51.42 273.6 51.42 273.6 49.39"/><rect class="cls-1" x="257.61" y="49.39" width="2.22" height="17.81"/><path class="cls-1" d="M249.15,56.67l-1.27-.5c-1.11-.42-2.48-1.16-2.48-2.55a2.81,2.81,0,0,1,3-2.53,3,3,0,0,1,2.85,1.68L253,51.71a5.05,5.05,0,0,0-4.57-2.7c-2.69,0-5.23,1.73-5.23,4.61,0,2.48,1.84,3.64,3.86,4.51l1.23.52c1.53.64,3.06,1.47,3.06,3.38a3.36,3.36,0,1,1-6.72.1l-2.23.47A5.6,5.6,0,0,0,253.56,62c0-3-1.89-4.37-4.41-5.36Z"/><polygon class="cls-1" points="224.84 65.17 217.51 65.17 217.51 58.44 224.63 58.44 224.63 56.41 217.51 56.41 217.51 51.42 224.84 51.42 224.84 49.39 215.3 49.39 215.3 67.2 224.84 67.2 224.84 65.17"/><polygon class="cls-1" points="213 49.39 210.58 49.39 205.29 62.58 200 49.39 197.56 49.39 205.29 68.15 213 49.39"/><rect class="cls-1" x="193.04" y="49.39" width="2.22" height="17.81"/><polygon class="cls-1" points="174.86 53.93 188.19 67.94 188.19 49.39 185.98 49.39 185.98 62.55 172.63 48.54 172.63 67.2 174.86 67.2 174.86 53.93"/><path class="cls-1" d="M162.12,67.58c4.08,0,6.51-3,6.51-6.92V49.39h-2.22V59.91c0,2.9-.87,5.59-4.29,5.59s-4.29-2.69-4.29-5.59V49.39h-2.21V60.66c0,3.92,2.42,6.92,6.5,6.92Z"/><path class="cls-1" d="M239.25,54.47a4.92,4.92,0,0,0-2.34-4.25,9.39,9.39,0,0,0-4.68-.83h-2.69V67.2h2.21V59.67h.92l5.23,7.53h2.69L235,59.46a4.86,4.86,0,0,0,4.27-5Zm-6.79,3.36h-.71V51.38h.59c2.19,0,4.84.4,4.84,3.19S234.72,57.83,232.46,57.83Z"/><path class="cls-1" d="M284.51,52.1a1.43,1.43,0,1,0-1.44-1.44A1.42,1.42,0,0,0,284.51,52.1Z"/><path class="cls-1" d="M272.54,67.2h2.38l2-4.46h8.16l2,4.46h2.39L281,48.64,272.54,67.2Zm5.32-6.49L281,53.5l3.16,7.21Z"/><path class="cls-1" d="M277.52,52.1a1.43,1.43,0,1,0,0-2.85,1.43,1.43,0,0,0,0,2.85Z"/><polygon class="cls-1" points="157.83 75.74 155.62 75.74 155.62 93.56 163.22 93.56 163.22 91.53 157.83 91.53 157.83 75.74"/><path class="cls-1" d="M227.91,86.61h4.59c-.09,2.91-3.06,5.3-5.82,5.3-3.84,0-6.9-3.55-6.9-7.28a7,7,0,0,1,12.68-4.32L234,78.82a9.27,9.27,0,1,0-7.47,15.12c5,0,8.41-3.76,8.41-8.65v-.71h-7v2Z"/><rect class="cls-1" x="212.23" y="75.74" width="2.22" height="17.81"/><polygon class="cls-1" points="197.85 75.94 197.85 77.98 205.58 77.98 196.58 93.76 209.19 93.76 209.19 91.73 200.19 91.73 209.19 75.94 197.85 75.94"/><rect class="cls-1" x="179.29" y="75.74" width="2.22" height="17.81"/><polygon class="cls-1" points="165.44 93.56 174.99 93.56 174.99 91.53 167.66 91.53 167.66 84.8 174.77 84.8 174.77 82.76 167.66 82.76 167.66 77.78 174.99 77.78 174.99 75.74 165.44 75.74 165.44 93.56"/><path class="cls-1" d="M189,75.74h-2.54V93.56h2.21V86.09h1.27c3.37,0,6.23-1.44,6.23-5.2C196.14,77.63,194.44,75.74,189,75.74Zm.38,8.37h-.71V77.73h.59c2.19,0,4.83.33,4.83,3.12s-2.45,3.26-4.71,3.26Z"/><rect class="cls-1" x="142.31" y="25.58" width="0.52" height="91.32"/><path class="cls-1" d="M83.87,25.58a45.66,45.66,0,1,0,45.65,45.66A45.71,45.71,0,0,0,83.87,25.58Zm0,90.79A45.13,45.13,0,1,1,129,71.24,45.18,45.18,0,0,1,83.87,116.37Z"/><path class="cls-1" d="M72.66,57.75l.19.08.11,0c.09,0,.12-.1.17-.19s.24-.4.41-.72a.46.46,0,0,1,.57-.28,2.47,2.47,0,0,1,.43.15l0-.06.06-.08,0,0,0-.14a.18.18,0,0,1,0-.1.14.14,0,0,1-.09-.08l-.18-.06a1,1,0,0,0-1.24.44c-.13.24-.4.59-.49.75s-.09.23,0,.3Z"/><path class="cls-1" d="M72.39,56.64a.29.29,0,0,0,.29-.15c0-.06,0-.2-.06-.25a.37.37,0,0,0-.19-.14.38.38,0,0,0-.21,0s-.16.06-.2.13,0,.19.07.26A.56.56,0,0,0,72.39,56.64Z"/><path class="cls-1" d="M72.31,58.17a.2.2,0,0,0-.24,0,.41.41,0,0,0,0,.2c0,.12,0,.33.5.45.19,0,.3,0,.36-.16C73,58.35,72.56,58.35,72.31,58.17Z"/><path class="cls-1" d="M95.42,57a.38.38,0,0,0,.34-.22c0-.08-.08-.25-.12-.31a.39.39,0,0,0-.25-.14.46.46,0,0,0-.26,0s-.19.1-.23.2,0,.23.12.31A.75.75,0,0,0,95.42,57Z"/><path class="cls-1" d="M100.18,68.62a.27.27,0,0,0,.25-.15.43.43,0,0,0-.09-.22.24.24,0,0,0-.18-.1.25.25,0,0,0-.18,0s-.14.07-.17.14,0,.16.09.22A.4.4,0,0,0,100.18,68.62Z"/><path class="cls-1" d="M92.91,56.32a.41.41,0,0,0-.29,0,.44.44,0,0,0-.22.11.75.75,0,0,0-.16.27c0,.1.12.2.23.24a.64.64,0,0,0,.41,0,.36.36,0,0,0,.24-.32C93.12,56.49,93,56.36,92.91,56.32Z"/><path class="cls-1" d="M74.39,57.23a.33.33,0,0,0-.2,0s-.16.08-.19.15,0,.19.1.25a.49.49,0,0,0,.31.11.33.33,0,0,0,.28-.18c0-.06-.06-.2-.1-.25S74.5,57.26,74.39,57.23Z"/><path class="cls-1" d="M55.12,94.23l-1.63.37-1.35-1.89L53,91.3l-.39-.55L49.43,96l6.08-1.27Zm-4.54,1,1.24-2,1.07,1.49Z"/><polygon class="cls-1" points="50.87 87.41 50.38 87.67 51.07 88.99 46.77 91.26 47.05 91.79 51.85 89.27 50.87 87.41"/><polygon class="cls-1" points="50.3 86.42 50.1 85.84 46.41 86.38 46.4 86.37 49.5 83.45 45.26 83.07 45.25 83.06 48.49 81.2 48.28 80.61 43.23 83.53 48.18 83.91 44.53 87.26 50.3 86.42"/><path class="cls-1" d="M48,78.75l-1.62-.41L46,76.05l1.42-.86-.1-.66-5.25,3.26,6,1.62Zm-4.5-1.16,2-1.22.27,1.81Z"/><polygon class="cls-1" points="47.13 71.74 47.18 71.13 43.57 70.15 43.57 70.14 47.58 68.7 43.84 66.66 43.84 66.65 47.55 66.23 47.59 65.61 41.8 66.28 46.19 68.59 41.5 70.21 47.13 71.74"/><path class="cls-1" d="M47.88,64.46l-1.33-1,.55-2.25L48.75,61l.16-.64-6.1,1,4.92,3.79Zm-1.82-1.37-1.88-1.43,2.32-.36Z"/><polygon class="cls-1" points="45.1 56.73 49.63 58.49 49.85 57.93 45.32 56.16 45.8 54.93 45.28 54.73 44.1 57.74 44.63 57.95 45.1 56.73"/><polygon class="cls-1" points="52.42 52.68 51.92 52.41 50.87 54.35 49 53.33 50.03 51.45 49.53 51.18 48.51 53.06 47.09 52.28 48.15 50.35 47.66 50.08 46.31 52.55 51.07 55.15 52.42 52.68"/><path class="cls-1" d="M54,50.32l-1.93-1.4.09-.12,2.89.06.43-.6-3,0a1.4,1.4,0,0,0,.21-1.07,1.46,1.46,0,0,0-.62-.9,1.22,1.22,0,0,0-1.34-.22,3.21,3.21,0,0,0-1,1l-.46.63,4.39,3.18Zm-2.24-1.86h0l-.11.15-1.58-1.14.1-.14a2.71,2.71,0,0,1,.69-.7c.25-.16.55-.11.92.15a.79.79,0,0,1,.4.81,2.52,2.52,0,0,1-.41.86Z"/><polygon class="cls-1" points="114.32 51.08 114.77 50.75 113.9 49.54 117.83 46.7 117.48 46.2 113.09 49.38 114.32 51.08"/><rect class="cls-1" x="115.26" y="51.59" width="5.42" height="0.6" transform="translate(-10.17 65.64) rotate(-29.87)"/><path class="cls-1" d="M117.38,56.69l2.19-.91.17.4,0,.08,0,.08a2.62,2.62,0,0,0,.3.51,1.38,1.38,0,0,0,1.06.53,1.65,1.65,0,0,0,.62-.1h0a1.8,1.8,0,0,0,.58-.41,1.35,1.35,0,0,0,.32-.63,1.47,1.47,0,0,0,0-.59,3.89,3.89,0,0,0-.18-.58.36.36,0,0,0,0-.09l0-.1-.34-.82-5,2.1Zm4.48-1.88L122,55h0a3.07,3.07,0,0,1,.23.94c0,.31-.17.54-.57.71a.81.81,0,0,1-.87,0,1.91,1.91,0,0,1-.51-.73l-.15-.37Z"/><path class="cls-1" d="M122.18,60.38a3.06,3.06,0,0,0-.28.93l-.07.36v0a3.68,3.68,0,0,1-.21.73.75.75,0,0,1-.58.45,1,1,0,0,1-.82-.13,1.14,1.14,0,0,1-.48-.68,1,1,0,0,1,.1-.78,1.16,1.16,0,0,1,.61-.52l-.32-.53a1.74,1.74,0,0,0-.83.82,1.64,1.64,0,0,0-.09,1.16,1.68,1.68,0,0,0,.76,1,1.59,1.59,0,0,0,1.28.18,1.16,1.16,0,0,0,.84-.61,3.89,3.89,0,0,0,.32-1l0-.39s0-.07,0-.11a.69.69,0,0,1,0-.13,2.15,2.15,0,0,1,.18-.48.59.59,0,0,1,.39-.31.74.74,0,0,1,.65.11.91.91,0,0,1,.39.55,1,1,0,0,1,0,.58,1.27,1.27,0,0,1-.32.47l.42.39a1.62,1.62,0,0,0,.45-.72,1.53,1.53,0,0,0,0-.85A1.63,1.63,0,0,0,124,60a1.23,1.23,0,0,0-1.09-.19A1.06,1.06,0,0,0,122.18,60.38Z"/><polygon class="cls-1" points="124.2 62.51 124.19 62.51 124.19 62.51 124.2 62.51"/><rect class="cls-1" x="120.15" y="66.1" width="5.42" height="0.6" transform="translate(-7.54 16.4) rotate(-7.41)"/><polygon class="cls-1" points="120.5 72.69 121.06 72.68 121.04 70.48 123.17 70.46 123.18 72.6 123.74 72.6 123.73 70.46 125.34 70.45 125.35 72.65 125.91 72.65 125.89 69.84 120.47 69.88 120.5 72.69"/><polygon class="cls-1" points="120.31 75.83 120.19 76.43 124.31 77.19 119.18 80.54 124.75 81.58 124.86 80.98 120.73 80.22 125.86 76.87 120.31 75.83"/><path class="cls-1" d="M122.48,84.6a1.08,1.08,0,0,0-1,0,3.18,3.18,0,0,0-.76.59l-.26.26h0l0,0a3.66,3.66,0,0,1-.59.48.8.8,0,0,1-.73,0,1,1,0,0,1-.59-.59,1.13,1.13,0,0,1,0-.83,1,1,0,0,1,.54-.58,1.22,1.22,0,0,1,.8-.08l0-.61A1.65,1.65,0,0,0,118,84.42a1.65,1.65,0,0,0,0,1.29,1.57,1.57,0,0,0,.93.89,1.2,1.2,0,0,0,1,0,4.54,4.54,0,0,0,.85-.66l.27-.28.08-.09.09-.09a2.42,2.42,0,0,1,.42-.29.62.62,0,0,1,.5,0,.78.78,0,0,1,.47.47,1,1,0,0,1,0,.67.88.88,0,0,1-.35.47,1.2,1.2,0,0,1-.53.2l.12.56a1.6,1.6,0,0,0,.78-.32,1.67,1.67,0,0,0,.5-.69,1.69,1.69,0,0,0,0-1.13,1.26,1.26,0,0,0-.78-.78Z"/><rect class="cls-1" x="118.51" y="86.82" width="0.6" height="5.42" transform="translate(-15.33 153.85) rotate(-62.62)"/><polygon class="cls-1" points="117.33 95.71 117.33 95.71 117.32 95.71 117.33 95.71"/><path class="cls-1" d="M118.5,93a1.07,1.07,0,0,0-.92-.19,3.29,3.29,0,0,0-.88.4l-.31.19s0,0,0,0h0a3.93,3.93,0,0,1-.68.34.78.78,0,0,1-.72-.14,1,1,0,0,1-.44-.7,1.14,1.14,0,0,1,.18-.81,1,1,0,0,1,.66-.45,1.21,1.21,0,0,1,.79.11l.18-.58a1.67,1.67,0,0,0-1.16-.09,1.72,1.72,0,0,0-.94.71,1.68,1.68,0,0,0-.27,1.27,1.55,1.55,0,0,0,.71,1.07,1.22,1.22,0,0,0,1,.23,4.21,4.21,0,0,0,1-.45l.33-.22.1-.06.11-.06a2,2,0,0,1,.48-.2.62.62,0,0,1,.49.09.76.76,0,0,1,.35.57,1,1,0,0,1-.6,1,1.41,1.41,0,0,1-.56.07v.57a1.54,1.54,0,0,0,.83-.14,1.67,1.67,0,0,0,.92-1.65A1.22,1.22,0,0,0,118.5,93Z"/><path class="cls-1" d="M55.78,44a.43.43,0,0,0,.44-.44.44.44,0,0,0-.44-.44.44.44,0,0,0-.44.44A.44.44,0,0,0,55.78,44Z"/><path class="cls-1" d="M111.64,43.08a.44.44,0,0,0-.44.44.44.44,0,0,0,.44.44.44.44,0,0,0,.44-.44A.43.43,0,0,0,111.64,43.08Z"/><path class="cls-1" d="M55.92,98.63a.44.44,0,0,0-.44.44.44.44,0,1,0,.88,0A.44.44,0,0,0,55.92,98.63Z"/><path class="cls-1" d="M112.08,98.48a.44.44,0,0,0-.44.44.43.43,0,0,0,.44.44.44.44,0,0,0,.44-.44A.44.44,0,0,0,112.08,98.48Z"/><path class="cls-1" d="M83.87,27.36A43.86,43.86,0,0,0,60,108l.23.15A43.87,43.87,0,1,0,83.87,27.36Zm0,2.68h1v-.52h-1V28.19c2.7.06,5.1,1.26,6.06,3H83.92Zm7.17,1.68v.88H76.27v-.88Zm14.29,17.63V43.48A35.23,35.23,0,0,1,119,76h-3.64s0-3.81,0-6.54l2,1.87.39-.42-2.43-2.25V65.1A.35.35,0,0,0,116,65a.35.35,0,0,0-.35-.35.34.34,0,0,0-.32.21v-.91a.34.34,0,0,0,.32.22.35.35,0,0,0,0-.7.34.34,0,0,0-.32.22v-.91a.34.34,0,0,0,.32.22.35.35,0,1,0,0-.7.34.34,0,0,0-.32.22v-.4h-.13a.34.34,0,0,0,.19-.3.35.35,0,1,0-.7,0,.34.34,0,0,0,.19.3h-.13v.36a.33.33,0,0,0-.3-.18.35.35,0,0,0,0,.7.32.32,0,0,0,.3-.19v.85a.32.32,0,0,0-.3-.19.35.35,0,0,0,0,.7.33.33,0,0,0,.3-.18v.84a.32.32,0,0,0-.3-.18.35.35,0,0,0,0,.69.32.32,0,0,0,.3-.18v3.4h-3c0-.08,0-11.25,0-11.25a.34.34,0,0,0,.32.22.35.35,0,1,0,0-.7.34.34,0,0,0-.32.22v-.91a.34.34,0,0,0,.32.21.35.35,0,1,0,0-.69.34.34,0,0,0-.32.21v-.91a.34.34,0,0,0,.32.22.35.35,0,1,0,0-.7.34.34,0,0,0-.32.22v-.39h-.13a.35.35,0,0,0,.19-.31.35.35,0,0,0-.7,0,.35.35,0,0,0,.19.31h-.13v.35a.35.35,0,1,0,0,.34v.84a.34.34,0,0,0-.3-.18.35.35,0,1,0,0,.69.34.34,0,0,0,.3-.18V57a.35.35,0,1,0-.3.52.35.35,0,0,0,.3-.19v6.23c-1.07-4.91-3.81-8.59-5.69-9.91V49.88h1.48v-.53Zm-.54,49.93a.52.52,0,0,1-.11.1.82.82,0,0,1-.25.2,3,3,0,0,1-1.36.45c-.38,0-.82-.32-1.05-.56a3,3,0,0,0,.38-1.92c0-.14-.44-3.34-.77-4.86a15.19,15.19,0,0,1,.61-6c.11-.41.2-.89.29-1.42a35.29,35.29,0,0,0,.39-6.31,14.56,14.56,0,0,0-1.18-4.19l.22,0c2.77,3.29,2.81,5.61,2.82,6.86l0,17.73Zm0,.69v5.56h-1.3l0-5A3,3,0,0,0,104.85,100Zm-7.69,4.1s0-.79-.09-1.15a4.54,4.54,0,0,0-.33-1.21,1.08,1.08,0,0,0,.3-.19,2.15,2.15,0,0,0,.56-.71.89.89,0,0,1,.49-.5,3.44,3.44,0,0,1,1.12,0h.09a12.2,12.2,0,0,0-1,3.18,2.07,2.07,0,0,0,.11.55h0c.06.13.36.76.48,1a10.31,10.31,0,0,1,.62,1.21.68.68,0,0,1,0,.62,1.53,1.53,0,0,1-.94.57,3.06,3.06,0,0,1-1.32-.1c-.12-.1-.09-.75-.08-1.06S97.15,104.2,97.16,104.07ZM79.1,110l1.26-1.88h.27V110Zm1.53.49v.88c-.63,0-1.19-.08-1.61-.09a8.1,8.1,0,0,0-2.57.28v-3.44h3.27l-1.58,2.36ZM66,107.62v-2.08H64.41v-1.06h5a4,4,0,0,0-.54,1c-.12.38-.08.92.74,1.36a1.22,1.22,0,0,0,.59.13,2.33,2.33,0,0,0,1.66-.65,3.46,3.46,0,0,0,.15-1.78h1.06a1,1,0,0,0,.55.58l.06,0a1.7,1.7,0,0,0,.61.15c.32,0,.65-.17,1.16-.64a2.11,2.11,0,0,0,.64.79,2.81,2.81,0,0,1,.53.55c.34.42.73.89,1.23.89h.9c.68,0,1.38-.09,1.51-.64.21-.9-.73-1.29-1.29-1.52-.15-.07-.3-.13-.4-.19l0,0H88.93a2.79,2.79,0,0,1-.54.4,2.11,2.11,0,0,0-1.19,1.81c0,.34.11.67.16.9ZM63.87,90.91v14.62H62.54V54.24a11.37,11.37,0,0,0,3,.94c0,.24,0,.48,0,.73a6.82,6.82,0,0,0,1.44,4.22,11.26,11.26,0,0,0-3,2.9c-.62.84-.69,4.11-.69,4.14a14.32,14.32,0,0,0,.5,3.35,4.74,4.74,0,0,1,.06,2q0,.33-.06.6a9.48,9.48,0,0,1-.25,1.34,8.27,8.27,0,0,0-.25,1.49,3.4,3.4,0,0,0,.64,1.77V88.12l-.59.21.59,2.58ZM62.54,38.6V38l5.83-3.19v8.39a13,13,0,0,0-2.65-2.5v-2.1h-.55v2.13a30,30,0,0,0-2.63,2.1V39.13H63.8V38.6Zm2.93,2.48c.85.63,2.85,2.3,2.9,3.4v4.87H62.54V43.47A31,31,0,0,1,65.47,41.08ZM69,49.88a6.75,6.75,0,0,0-2.2,1.95,15.94,15.94,0,0,1-4.29-1.31h0v-.65ZM77,38.6V33.12H90.37V38.6H89.25v.53h1.12V49.35h-.82c-.39-2.94-4.93-10-5.59-11V35.72h-.61V38.4c-.69,1-5.09,7.76-5.47,11H77V39.13h1.13V38.6ZM91.63,49.88a6.91,6.91,0,0,0-2.83,3,15.85,15.85,0,0,1-4.61-1.27,1.47,1.47,0,0,0,.38-.3,1.16,1.16,0,0,0,.09-1.39ZM91,49.35V43.91c0-.8,2.68-2.66,3.15-3,.8.59,2.66,2.17,2.82,3.24v5.14A7.18,7.18,0,0,0,95,49a6.68,6.68,0,0,0-2.15.35Zm-.3,9.58a2,2,0,0,1-.41-1.06,1.68,1.68,0,0,1,.33-.9,1.57,1.57,0,0,0,.33-1c0-.66.14-2.25,1.08-2.63a1.32,1.32,0,0,1,1.54.11,1.92,1.92,0,0,0-1,.37,2.38,2.38,0,0,0-1,1.53,16.35,16.35,0,0,0-.18,2.4,4.71,4.71,0,0,0,.4,1.51h0a1.78,1.78,0,0,1,.19.64c0,.41.07,1.29.07,1.7a5.56,5.56,0,0,1-1.35.23,4,4,0,0,1-.51,0l-.19,0c-.44-.09-.8-.18-1-.25-.08-.3-.14-.75,0-.83a1.1,1.1,0,0,1,.53,0A1.17,1.17,0,0,0,91,60.3C91.25,59.87,91,59.39,90.69,58.93Zm8.51,1.13a1.49,1.49,0,0,0,.47.07,2,2,0,0,0,.5-.06,5.94,5.94,0,0,1,1.17,2,5.58,5.58,0,0,1-1-.62A3.26,3.26,0,0,0,97,61.1S97,61,97,61c0-.27-.09-.54-.13-.74a.81.81,0,0,0-.06-.22c0-.05,0-.08,0-.09h0a1.61,1.61,0,0,1,0-.87,10.7,10.7,0,0,0,.06-3,3.28,3.28,0,0,0-1.13-2.19,3.22,3.22,0,0,0-.83-.34,1.84,1.84,0,0,1,1.43-.41,1.34,1.34,0,0,1,.94.6,2.88,2.88,0,0,1,.6,2.11l0,.18c-.2,1-.67,3.39,1.41,4.08Zm2.66-4.82a10,10,0,0,0,3-1V67.92a2.2,2.2,0,0,0-.15-.26l-.07-.13a2.75,2.75,0,0,0-.32-.39A8.41,8.41,0,0,1,102,62.79a5.8,5.8,0,0,0-1.36-2.95,6.88,6.88,0,0,0,1.23-3.93c0-.22,0-.45,0-.67Zm-.08-.56a7,7,0,0,0-.86-2.29,17.2,17.2,0,0,0,3.93-1.17V53.6A9.18,9.18,0,0,1,101.78,54.68ZM86.16,78.85a9.49,9.49,0,0,1-.76-1.71c-.53-1.66,2.19-3,3.35-3.62l.43-.23a4.89,4.89,0,0,1,3.5-.82c.19,0,.44.1.73.14a11.46,11.46,0,0,1-1.24,2.81,16.93,16.93,0,0,1-2.58,2.9A5.8,5.8,0,0,0,87.86,81a8.21,8.21,0,0,1-1.29,2.83c.07-.66.14-1.37.22-2.12A4,4,0,0,0,86.16,78.85ZM86,91.5a19,19,0,0,0,1.51,1.71,11.87,11.87,0,0,0-1.15,3.46,4.07,4.07,0,0,0,.23,3.19,2.27,2.27,0,0,0,1.69.82,4.94,4.94,0,0,0,1.54-.14,5.72,5.72,0,0,1,.3,1.46c0,.16,0,.29,0,.42a1.28,1.28,0,0,1-.32,1.13l-.2.22-.18.21H81.53a4,4,0,0,1-.77,0c-.05,0-.51,0-.7,0l0,0H78.33c0-.14,0-.33,0-.56a13.72,13.72,0,0,0,2.9-.64,1.35,1.35,0,0,0,.86-.84,2.38,2.38,0,0,0-.5-1.85,2.21,2.21,0,0,1-.13-.23h0v0A8.55,8.55,0,0,1,81,99,12.37,12.37,0,0,1,81.12,94a4.86,4.86,0,0,1,1.09-2.12,5.83,5.83,0,0,0,.86-1.34,5.75,5.75,0,0,0,0-3.24L83,87A5.91,5.91,0,0,1,83,84.16a1.82,1.82,0,0,1,.14-.28,4.64,4.64,0,0,0,.24-3.7,4,4,0,0,1,0-1.85,4.06,4.06,0,0,0-.06-2.23,5.12,5.12,0,0,1,.33-2.66,7.88,7.88,0,0,0,1.7,1.85,2.12,2.12,0,0,0-.43,2,9.55,9.55,0,0,0,.8,1.8,3.58,3.58,0,0,1,.57,2.53c-.09.78-.16,1.51-.23,2.19C85.93,85,85.83,86,85.68,87c-.21,1.24-.38,3.6.3,4.53Zm15.28-24.18c-.45-.46-1.44-.21-2,0s-1.33.74-1.26,1.27c0,.31.36.41.61.49a1.14,1.14,0,0,1,.3.12.9.9,0,0,1-.17.72,3.47,3.47,0,0,0-.33.39,2.42,2.42,0,0,1-1-1.93,2.4,2.4,0,1,1,4.26,1.49,1.18,1.18,0,0,1-.37,0c-.06,0-.16-.06-.18-.11s0-.4.15-.65A1.58,1.58,0,0,0,101.26,67.32Zm-2.88,4.24a3.53,3.53,0,0,1,.78-1.24,1.39,1.39,0,0,0,.32-1.2c-.06-.33-.39-.43-.66-.52-.09,0-.24-.07-.25,0a2,2,0,0,1,1-.73c.56-.24,1.19-.3,1.36-.13s.18.7,0,1.25A1.42,1.42,0,0,0,100.7,70a.76.76,0,0,0,.51.38,1.49,1.49,0,0,0,.63,0,1.61,1.61,0,0,1,1.69.59c.14.18,0,.67-.1,1.06s-.26,1,0,1.29l.13.14a4,4,0,0,1-.47.24c-.4-.48-.45-.66-.85-.85-.09,0-.09-.2-.09-.4s0-.48-.25-.57-.68,0-1.27.84c-.19.28-.57.3-1,.3,0-.06.06-.14.08-.19.13-.29.25-.57,0-.75s-.46,0-.57,0a4.62,4.62,0,0,1-1,.31C98.29,72.13,98.34,71.82,98.38,71.56Zm.85,1.13c-.12.28-.22.53-.09.73a.37.37,0,0,0,.32.16h.13A1.62,1.62,0,0,0,101,73a2.18,2.18,0,0,1,.56-.6v0a.86.86,0,0,0,.4.89,2.5,2.5,0,0,1,.61.57,6.66,6.66,0,0,1-2.35.51,8.46,8.46,0,0,1-2.9-.52,1.3,1.3,0,0,0,.23-.18,1.81,1.81,0,0,0,.47-.72,6,6,0,0,0,1.17-.32ZM100.46,75a5.58,5.58,0,0,0,.81-.09,15,15,0,0,1,1.17,4.1,35,35,0,0,1-.38,6.2l0,.18c-3-.72-4.68.8-6.42,2.41a10.43,10.43,0,0,1-4.25,2.78,6.79,6.79,0,0,0-3.12,1.69,4.5,4.5,0,0,1,2-2.4,4.82,4.82,0,0,0,1.5-1.8,7.27,7.27,0,0,1,.91-1.31,25.74,25.74,0,0,1,2.16-2.11l.24-.22a12.07,12.07,0,0,0,2.18-2.33,19.91,19.91,0,0,0,2.7-5.26A15.4,15.4,0,0,0,100.46,75Zm.71,17.85c.32,1.5.75,4.78.76,4.82a2.42,2.42,0,0,1-.34,1.62,1.63,1.63,0,0,1-1.16.6,4.26,4.26,0,0,1-1.15,0,3.8,3.8,0,0,0-1.32,0,1.43,1.43,0,0,0-.82.75,1.79,1.79,0,0,1-.44.57l-.08,0c.11-.82.4-3,.48-3.63a11.58,11.58,0,0,0-1.28-6.84,3.79,3.79,0,0,1,.09-2.51l.06,0c1.7-1.58,3.19-3,6-2.28,0,.24-.1.47-.15.67C101.3,88.44,100.8,91.08,101.17,92.8Zm1.76,7.74v3.52H99a1.44,1.44,0,0,1-.14-.56,13,13,0,0,1,1-3.11,3.67,3.67,0,0,0,.64,0,2.31,2.31,0,0,0,1.23-.49A2.24,2.24,0,0,0,102.93,100.54Zm-12.28,1.85c0-.12,0-.25,0-.39a6,6,0,0,0-.31-1.55,10,10,0,0,1,1.27-.16,4.45,4.45,0,0,1,1.13.12,3.72,3.72,0,0,1-.22.3,2.9,2.9,0,0,0-.47,2.71l.1.16a2.44,2.44,0,0,1,.41,1.3c-.05.4-.92.72-1.38.8a5,5,0,0,0-1.53.66l-1.78,1.08c0-.21-.09-.5-.13-.78s.43-1,.92-1.26a3.8,3.8,0,0,0,1-.88h0v0c.1-.11.21-.23.31-.36l.19-.22A1.76,1.76,0,0,0,90.65,102.39Zm1.85.79a2.39,2.39,0,0,1,.43-2.16l.34-.46a9.36,9.36,0,0,1,1.21.56l.14.08a4.09,4.09,0,0,0,1.58.59,4.28,4.28,0,0,1,.35,1.2c0,.31.09.74.1,1.08H93a6.14,6.14,0,0,0-.39-.74Zm1.65-10.87a4.61,4.61,0,0,1,.11-2.69c.32-.25.63-.51.94-.78A3.34,3.34,0,0,0,95.35,91a11,11,0,0,1,1.23,6.53c-.09.71-.41,3.12-.5,3.77a4.3,4.3,0,0,1-1.21-.51l-.14-.08a8.83,8.83,0,0,0-1.06-.51,11.47,11.47,0,0,0,.71-1.78A14.54,14.54,0,0,0,94.15,92.31ZM91.51,91a8,8,0,0,0,2.07-1,4.93,4.93,0,0,0,.06,2.37,14.12,14.12,0,0,1,.22,5.8,9.34,9.34,0,0,1-.65,1.63l-.11.06a5,5,0,0,0-1.34-.19h-.19a10.54,10.54,0,0,0-1.72.23,5.44,5.44,0,0,1-1.53.15,1.69,1.69,0,0,1-1.32-.6,3.67,3.67,0,0,1-.15-2.78C87.55,93.48,88.35,92,91.51,91ZM73,104H71.89s0-.18-.07-.3l.25-.83a6.07,6.07,0,0,0,1,.19c-.06.36-.09.6-.1.61A3.09,3.09,0,0,0,73,104Zm-7.24-7.67,1.45-.76,1,7.16-.82.76Zm1.14,7.7H64.41V93.28ZM65.41,82a1.08,1.08,0,0,1,.08.26,2.39,2.39,0,0,1-.37.75,2.08,2.08,0,0,0-.44,1,3.34,3.34,0,0,0,.17,1.41l.27.79.41.12.3-.25L66,87.34l-1.61.58V78a2.4,2.4,0,0,0,.56.43,2.53,2.53,0,0,1,.37.28c.24.26.17.64,0,1.24A3,3,0,0,0,65.41,82Zm.17,2.26.17,1.21-.26.21-.15-.45A2.89,2.89,0,0,1,65.2,84a1.82,1.82,0,0,1,.35-.75A2.36,2.36,0,0,0,66,82.09h0c.37-.41,1-.2,1.24-.09a1.69,1.69,0,0,1,.45,1.45l0,0,0,.08A15.65,15.65,0,0,1,66.27,85l-.12-.85ZM68.06,84l.06.11c0,.34,0,.73-.07,1.17s-.06.85-.09,1.32l-1.39.51-.21-1.54A19.75,19.75,0,0,0,68.06,84Zm-.13,3.22a27,27,0,0,0,.17,4.45,23.08,23.08,0,0,0,.43,2.5l-.92.47-1-7Zm1.16,14.26.1.46-.51.41-1-7.11,1-.5c0,.11.06.21.09.29a2.19,2.19,0,0,1,.16.88c0,.7,0,1.06-.05,1.59,0,.29,0,.63-.06,1.09A10.79,10.79,0,0,0,69.09,101.51Zm2.29,1.82a.44.44,0,0,0-.15,0,1.44,1.44,0,0,0-1,.25l-.05,0-.37-1.71L70,102a10,10,0,0,0,1.62.72Zm-2-.74.32,1.42h-2.1Zm1.54,1.24.23,0c.1,0,.25.21.28.29a3.86,3.86,0,0,1,0,1.92,1.9,1.9,0,0,1-1.56.34c-.54-.29-.54-.54-.48-.75C69.49,105.17,70.29,104,70.87,103.83Zm2.26-1.31a8.25,8.25,0,0,1-2.93-1,1.77,1.77,0,0,1-.67-.75,10.46,10.46,0,0,1-.14-2.13c0-.46,0-.79.06-1.07,0-.53,0-.91,0-1.63a2.83,2.83,0,0,0-.18-1,16.29,16.29,0,0,1-.65-3.26,30.07,30.07,0,0,1,0-6.28c0-.22,0-.42,0-.62l0,.06h0l0,0s0-.12,0-.3a5.21,5.21,0,0,1,1,1.38,8.52,8.52,0,0,1,.46,1.17,3.88,3.88,0,0,0,.64,1.32,22,22,0,0,0,2.4,2.32,8.76,8.76,0,0,0,0,2.35c.08.62.16,1.14.23,1.61a14.76,14.76,0,0,1,.2,4C73.49,100,73.28,101.5,73.13,102.52ZM69.47,79c-.09-.44-.13-.81-.19-1.12a6,6,0,0,1-.12-2.24,2.71,2.71,0,0,0-.53-2.09,4.64,4.64,0,0,1-.26-.44,3.31,3.31,0,0,1-.44-2.4c.22-.74.65-2.59,0-3.73a5.28,5.28,0,0,0-1.86-2.2,7.73,7.73,0,0,0-2.08-.4,2.63,2.63,0,0,1,.32-1c.11-.16.23-.31.34-.46.43.4,2.36,2,6.94,2h.73a10.25,10.25,0,0,1,.66,3,1.33,1.33,0,0,1-.2.53,1.66,1.66,0,0,0-.1,1.46c.12.5.24.88.34,1.2a3.65,3.65,0,0,1,.24,1.19,2.68,2.68,0,0,1-.24.91,2.72,2.72,0,0,0-.24,1.69,8.38,8.38,0,0,0,.31.9,4.78,4.78,0,0,1,.34,1.17,1.21,1.21,0,0,1-.07.76,2.24,2.24,0,0,0-.15.86,4,4,0,0,0,1,2c.14.18.27.36.36.49s1,2.24,1.21,2.7h0l0,0,0,0c-.28.64-.94,2.14-1.36,2.94a12.64,12.64,0,0,0-1.2,3.36,19,19,0,0,1-2.08-2,3.37,3.37,0,0,1-.57-1.16,8.27,8.27,0,0,0-.48-1.24,6.19,6.19,0,0,0-1.59-1.94.58.58,0,0,0-.09-.22l.2-.38A6.12,6.12,0,0,0,69.47,79Zm7.24-21.15A1.31,1.31,0,0,1,76.46,59c-.39.39-1.13.21-1.51.09l.25-.29c.15-.18,1.38-1.77,1-2.88a.88.88,0,0,0-.78-.56.9.9,0,0,1-.42-.16.6.6,0,0,1-.19-.32,1,1,0,0,0-.6-.69,1.15,1.15,0,0,0-.41,0,1.9,1.9,0,0,1-.79-.12,1.73,1.73,0,0,0-1.79.65.77.77,0,0,0-.17.36,2.46,2.46,0,0,1-.29.62,3.13,3.13,0,0,1-1,1l-.17-.11c-.24-.15-.68-.42-.67-.55s.07-.13.28-.26a1.31,1.31,0,0,0,.56-.54,2,2,0,0,0,.14-.42,1.86,1.86,0,0,1,.4-.86,2.27,2.27,0,0,1,.87-.15,2.46,2.46,0,0,0,.91-.15,2.4,2.4,0,0,0,.39-.26.87.87,0,0,1,.54-.27c.32,0,.43.15.57.35a.65.65,0,0,0,.45.35,1.18,1.18,0,0,0,.54-.12c.23-.1.4-.16.53-.1s.28.42.38.67a1.74,1.74,0,0,0,.37.65A.73.73,0,0,1,76,55a1.43,1.43,0,0,0,.67.47.4.4,0,0,1,.23.27,1.44,1.44,0,0,1-.13,1A1.56,1.56,0,0,0,76.71,57.82ZM71.2,56a2.46,2.46,0,0,0,.35-.77.26.26,0,0,1,.07-.15s.57-.7,1.21-.48a2.61,2.61,0,0,0,1,.15H74c.18.07.22.17.3.38a1.06,1.06,0,0,0,.37.57,1.5,1.5,0,0,0,.63.24c.24.05.32.07.38.23.25.7-.56,2-.89,2.36a6,6,0,0,1-1.53,1.38,1.57,1.57,0,0,1-1.18-.15c-.18-.11-.77-.57-1.15-.88a.14.14,0,0,1,0-.06,1.6,1.6,0,0,0-.59-1.71L70.25,57A3.47,3.47,0,0,0,71.2,56Zm.6,4.22a2.24,2.24,0,0,0,1.62.2,1.36,1.36,0,0,0,.32-.16l1.85,1a2,2,0,0,0-.79.55l-.12.15A2.42,2.42,0,0,1,73.11,63a1.38,1.38,0,0,1-.93-.36,2.86,2.86,0,0,0-1.3-.58,7.62,7.62,0,0,0-1.11-.1,2,2,0,0,1-.93-.17,3.79,3.79,0,0,1-1-1l-.21-.48.14-.1c1-.56,2.23-.37,3-.87C71.07,59.63,71.61,60.06,71.8,60.18Zm-3.2,2.11a2.51,2.51,0,0,0,1.16.23,7.8,7.8,0,0,1,1,.09,2.46,2.46,0,0,1,1.08.49,1.87,1.87,0,0,0,1.14.46h.13a2.85,2.85,0,0,0,1.93-1.3l.12-.15a2,2,0,0,1,1.12-.53h.08a5.84,5.84,0,0,0,1,1.45c-.2.14-2,1.34-5.65,1.34h-.09c-4.51,0-6.33-1.61-6.6-1.87a11.42,11.42,0,0,1,2.13-1.86l.2.44A4,4,0,0,0,68.6,62.29Zm14.22,18a6.66,6.66,0,0,1,.16.86,3.49,3.49,0,0,0-1.77,2.42,17.55,17.55,0,0,0-.38,2.09,4.27,4.27,0,0,1-.2,1,26.2,26.2,0,0,1-3.21,4,3.85,3.85,0,0,1-.12-.45c-.1-.42.21-.87.54-1.34a3.23,3.23,0,0,0,.71-1.55,1.59,1.59,0,0,0-.21-.94A4.49,4.49,0,0,1,78,83.89a23.79,23.79,0,0,1,.63-4.84,21.28,21.28,0,0,1,2.08-1.89,1.59,1.59,0,0,0,.73.19h.14a2.61,2.61,0,0,0,1.3-.74,4,4,0,0,1,0,1.63A4.65,4.65,0,0,0,82.82,80.31ZM82.5,87l.07.38a5.4,5.4,0,0,1,0,3,5.7,5.7,0,0,1-.79,1.22,5.4,5.4,0,0,0-1.2,2.33,12.86,12.86,0,0,0-.13,5.24c.11.27.28.59.46.94l0,0h0a2,2,0,0,0,.13.22c.22.36.59,1,.45,1.42a.9.9,0,0,1-.57.52,12.84,12.84,0,0,1-2.74.6,25,25,0,0,0-.44-3.63,9.87,9.87,0,0,1,.38-4.36,7,7,0,0,0-.58-3.68,26,26,0,0,0,3.52-4.39,4.75,4.75,0,0,0,.22-1.09,18.46,18.46,0,0,1,.37-2,3,3,0,0,1,1.31-2,3.41,3.41,0,0,1-.41,1.88,2,2,0,0,0-.17.38A6.36,6.36,0,0,0,82.5,87Zm.24-11a2.82,2.82,0,0,1-1.21.81c-.78.08-1.65-1-2-1.61a22.62,22.62,0,0,1,1.68-1.85.61.61,0,0,1,.55-.14c.49.11.94.81,1.09,1.1A5.19,5.19,0,0,0,82.74,76ZM79,75.32a6.63,6.63,0,0,0,.5.72l-.77.2-1.94-7.85L78.16,68l1.51,6.16c-.34.39-.63.74-.69.82l-.12.14ZM80.86,73a6.91,6.91,0,0,0-.76.77l-1.43-5.8,1.89-.46,1.23,5.24A1.13,1.13,0,0,0,80.86,73ZM76.1,68l2.2,8.88,1.55-.39a4.73,4.73,0,0,0,.4.37,17.9,17.9,0,0,0-2.19,2.06,7.13,7.13,0,0,0-1.13,2.59,6.58,6.58,0,0,1-.78,1.76c-.39-.86-1.28-2.8-1.46-3a3.77,3.77,0,0,1-.92-1.7,1.6,1.6,0,0,1,.13-.68,1.82,1.82,0,0,0,.09-1,5.25,5.25,0,0,0-.37-1.29,6.76,6.76,0,0,1-.29-.84,2.26,2.26,0,0,1,.23-1.37,3.35,3.35,0,0,0,.27-1.09,3.1,3.1,0,0,0,0-.54h0a2.76,2.76,0,0,1,.5-1.11,2.55,2.55,0,0,0,.34-1.13,4.13,4.13,0,0,1,1.11-2.36,11.45,11.45,0,0,1,2.32-2.31c.43.6,1.31,1.75,1.74,2.3L76.1,68Zm-.78-1.22a4.51,4.51,0,0,0-1.22,2.63,2.11,2.11,0,0,1-.27.92,5.67,5.67,0,0,0-.28.51c-.1-.29-.2-.64-.32-1.11-.17-.7-.08-.85,0-1.07a1.76,1.76,0,0,0,.26-.71,9.83,9.83,0,0,0-.64-3.12,9.84,9.84,0,0,0,4.67-1.33s0,.08,0,.13a2.45,2.45,0,0,0,.18.72A11.51,11.51,0,0,0,75.32,66.78Zm-1.85,36.94s.46-2.84.66-5a14.76,14.76,0,0,0-.21-4.1c-.07-.46-.14-1-.22-1.6A11.09,11.09,0,0,1,75,87c.46-.88,1.19-2.54,1.43-3.09h0v0a.65.65,0,0,1,.07-.16h0a8.17,8.17,0,0,0,.9-2.08,10.94,10.94,0,0,1,.5-1.35,22,22,0,0,0-.4,3.58,4.91,4.91,0,0,0,.39,2.77,1,1,0,0,1,.15.67,2.84,2.84,0,0,1-.61,1.28,2.31,2.31,0,0,0-.63,1.75c.06.28.19.64.33,1.06a6.65,6.65,0,0,1,.57,3.37,10.12,10.12,0,0,0-.38,4.64,35,35,0,0,1,.49,4.4,1.77,1.77,0,0,0-1.28-.33,1.94,1.94,0,0,0-1,.31.33.33,0,0,0-.22.23c-.88.84-1,.79-1.48.61l-.06,0c-.39-.15-.33-.88-.33-.88Zm3.1.28a1.67,1.67,0,0,1,1.43.72,3,3,0,0,0,.28.26,4.59,4.59,0,0,0,.48.22c.61.26,1.08.49,1,.92-.06.27-1.11.24-1.51.22h-.38c-.25,0-.56-.37-.82-.69a3,3,0,0,0-.66-.67,1.86,1.86,0,0,1-.53-.72,1.4,1.4,0,0,1,.74-.25ZM92.79,72a5.51,5.51,0,0,0-3.91.9l-.37.19a11.38,11.38,0,0,0-2.83,1.85,6.89,6.89,0,0,1-1.74-2c2.1-1.3,5.16-3,5.76-2.82A5.09,5.09,0,0,0,93.4,70a2.2,2.2,0,0,1,.23-.08,1.14,1.14,0,0,1,.59.09,7.77,7.77,0,0,0,.84.21c1.1.23,1.29.51,1.33.62s-.11.41-.43.71C95,72.45,93.51,72.11,92.79,72Zm-3-2.36c-1-.26-4.83,2.06-6.11,2.85a2.59,2.59,0,0,1-.13-.55A2.77,2.77,0,0,1,84.41,70,8.26,8.26,0,0,0,87,64.47c.09-1,1.48-2.16,1.87-2.45.26.07.64.17,1.11.26a2.37,2.37,0,0,0,.43,0h.38a5.47,5.47,0,0,0,1.29-.2,6.19,6.19,0,0,1-.21,1.17l-.1.27a2.94,2.94,0,0,0-.28,1.11.37.37,0,0,1,0,.11,1.18,1.18,0,0,0,.9,1.26,5.05,5.05,0,0,0,1,.1,3.21,3.21,0,0,0,1.4-.27,3.58,3.58,0,0,0,1.68-2.21l.19-.73c.13-.48.32-1.26.32-1.26a3.93,3.93,0,0,1,1.33-.33,3.23,3.23,0,0,1,1.52.46,3.55,3.55,0,0,0,1.65.85c0,.07,0,.13,0,.2s0,.15,0,.22a3.21,3.21,0,0,0-1,0,4.8,4.8,0,0,0-2.93,1.58,4.92,4.92,0,0,1-2.66,1.75c-.49.15-2.58.89-2.76,1A17.14,17.14,0,0,0,90,69.64l-.2,0Zm2.73-9.73a1.63,1.63,0,0,0,.94-.4,1,1,0,0,1,1.43,0,2.53,2.53,0,0,0,1.32.47,1.71,1.71,0,0,0,.09.3h0a6.45,6.45,0,0,1,.15.8,7.23,7.23,0,0,1-.35,1.75c-.07.25-.13.5-.2.74a3,3,0,0,1-1.41,1.87,3.52,3.52,0,0,1-2.06.13c-.4-.08-.45-.39-.48-.78a.61.61,0,0,0,0-.14,3.29,3.29,0,0,1,.25-.87,2.43,2.43,0,0,0,.1-.28,9.69,9.69,0,0,0,.28-1.68A15.07,15.07,0,0,0,92.56,59.86Zm2.85-5.57a2.24,2.24,0,0,1,.74,1.15,3.55,3.55,0,0,0-1.74.23l.23.47A2.73,2.73,0,0,1,96.25,56a.21.21,0,0,1,0,.08,11,11,0,0,1,0,2.85,2.63,2.63,0,0,0-.06.48,2.2,2.2,0,0,1-1-.39,1.73,1.73,0,0,0-1.15-.37,1.8,1.8,0,0,0-.86.39,1.08,1.08,0,0,1-.74.29s0-.1,0-.14h0a0,0,0,0,0,0,0l0-.09A4.13,4.13,0,0,1,92,57.68a14.55,14.55,0,0,1,.1-1.67h0a1.17,1.17,0,0,1,.53-.09c.31,0,.65,0,.79.18a.62.62,0,0,1,.09.45A8.63,8.63,0,0,1,93,58.17l.56,0L94,56.71a1,1,0,0,0-.08-.89,1.66,1.66,0,0,0-1.3-.42,2,2,0,0,0-.46,0h0a1.93,1.93,0,0,1,.77-1.23A2.57,2.57,0,0,1,95.41,54.29Zm-6.58,5.92c-.58.26-.44,1-.34,1.42-.48.37-1.92,1.57-2,2.79a7.9,7.9,0,0,1-2.37,5.13,3.2,3.2,0,0,0-1,2.4,3.27,3.27,0,0,0,.3,1l-.05,0a2.49,2.49,0,0,0-.32.69,2.72,2.72,0,0,0-.6-.63L81,66.82l-.61.14c-.38-.49-1.78-2.31-2-2.73a1.8,1.8,0,0,1-.19-.68,1.33,1.33,0,0,0-.4-.95,5.57,5.57,0,0,1-.89-1.39,6.9,6.9,0,0,0,2.47-4.89,21.53,21.53,0,0,0,4.4-1.27,19.48,19.48,0,0,0,4.4,1.31,7.76,7.76,0,0,0,1,3.78,1,1,0,0,0-.3.07Zm-.75-4.39a19.05,19.05,0,0,1-4.35-1.32h-.09a19.65,19.65,0,0,1-4.33,1.28,6.85,6.85,0,0,0-.5-2.44,15.36,15.36,0,0,0,4.88-1.43,15.36,15.36,0,0,0,4.88,1.43A6.81,6.81,0,0,0,88.08,55.82Zm-3.42-8.19s0,0,0,0a1.13,1.13,0,0,0,1.19,1.06h0a1.34,1.34,0,0,0,1-.44,1.42,1.42,0,0,0,.38-1.06,1.71,1.71,0,0,0-1.37-1.5h0a1.75,1.75,0,0,0-1.68-1.81v.52a1.21,1.21,0,0,1,1.14,1.24,1.88,1.88,0,0,0-1.64,1,1.89,1.89,0,0,0-1.64-1,1.22,1.22,0,0,1,1.14-1.23v-.53a1.75,1.75,0,0,0-1.67,1.81h0a1.72,1.72,0,0,0-1.37,1.51,1.43,1.43,0,0,0,.37,1.06,1.31,1.31,0,0,0,1,.43h0a1.14,1.14,0,0,0,1.21-1.06v0h-.53a.66.66,0,0,1-.69.57.82.82,0,0,1-.59-.27.85.85,0,0,1-.23-.66A1.2,1.2,0,0,1,82,46.2h0a1.41,1.41,0,0,1,1.43,1.49v1.66h-5c.37-2.86,4.23-8.92,5.22-10.43,1,1.55,5,7.81,5.34,10.43H84V47.7a1.4,1.4,0,0,1,1.43-1.49h0a1.22,1.22,0,0,1,1.29,1.07.9.9,0,0,1-.23.67.85.85,0,0,1-.6.26h0a.61.61,0,0,1-.67-.57h-.53Zm-1,2.25a.64.64,0,0,1,.64.63.65.65,0,0,1-.64.64.64.64,0,0,1-.63-.64A.63.63,0,0,1,83.69,49.88Zm-1,0a1,1,0,0,0-.1.18,1.17,1.17,0,0,0,0,.9,1.49,1.49,0,0,0,.2.31,1.72,1.72,0,0,0,.41.31,16.43,16.43,0,0,1-4.64,1.26,7,7,0,0,0-2.83-3ZM76.4,38.6H75v.53H76.4v3.76a11.13,11.13,0,0,0-2.79-2.38V38.38h-.55v2.1A13.71,13.71,0,0,0,70.42,43V34.76l6,2.73Zm-3.08,2.31c.47.34,3,2.25,3.08,3.2v5.24H74.55A6.64,6.64,0,0,0,72.4,49a6.82,6.82,0,0,0-2,.29v-5C70.56,43.23,72.47,41.53,73.32,40.91Zm-.92,8.62A6.38,6.38,0,0,1,76.27,61L74.2,59.87l.38-.3.09,0c.41.13,1.51.48,2.16-.2a1.78,1.78,0,0,0,.41-1.65,1.1,1.1,0,0,1,0-.66,1.94,1.94,0,0,0,.18-1.49A.91.91,0,0,0,76.9,55a.89.89,0,0,1-.45-.32,1.66,1.66,0,0,0-.23-.23A2,2,0,0,1,76,54c-.15-.36-.31-.78-.64-.94a1.12,1.12,0,0,0-1,.08l-.24.1-.1-.14a1.09,1.09,0,0,0-1-.58,1.38,1.38,0,0,0-.85.38,1.48,1.48,0,0,1-.3.21,2.71,2.71,0,0,1-.71.1A2.17,2.17,0,0,0,70,53.5a2.33,2.33,0,0,0-.56,1.12,2,2,0,0,1-.1.34.79.79,0,0,1-.36.3.87.87,0,0,0-.53.7c0,.44.45.73.91,1a7.79,7.79,0,0,1,.64.47,1.13,1.13,0,0,1,.45,1.26c-.07.43-.37.48-.83.51a5.92,5.92,0,0,0-2.12.55l-.12.07a6.38,6.38,0,0,1,5-10.31Zm-2.55-.18h-.91V34.46l.37-.21.54.25V49.35Zm-3.38,3a6.7,6.7,0,0,0-.85,2.23,9.58,9.58,0,0,1-3.08-1V51.2A17.13,17.13,0,0,0,66.47,52.38ZM63.76,75.9A7.66,7.66,0,0,1,64,74.54a9.31,9.31,0,0,0,.26-1.44,4,4,0,0,1,0-.55,5.1,5.1,0,0,0-.07-2.18,13.62,13.62,0,0,1-.48-3.19c0-.75.21-2.31.21-2.31a7.74,7.74,0,0,1,1.92.35,4.8,4.8,0,0,1,1.61,2c.54,1,.08,2.8-.08,3.34a3.83,3.83,0,0,0,.49,2.78c.08.17.18.32.27.48a2.24,2.24,0,0,1,.46,1.73,6.42,6.42,0,0,0,.12,2.41c.06.31.12.67.19,1.11a5.7,5.7,0,0,1-.71,3.86l0,0a1.84,1.84,0,0,0-.71-1.42,1.65,1.65,0,0,0-1.69,0,2.84,2.84,0,0,1,.08-1.47,1.78,1.78,0,0,0-.16-1.71,2.23,2.23,0,0,0-.48-.36c-.18-.12-1.11-.7-1.27-1.19a2.4,2.4,0,0,1-.23-.93Zm2.34,12,1,7-1.52.77-1.6-7Zm21.41,20.31a10.06,10.06,0,0,1,1.4,1.09c.24.25.22.49-.08.83-.12.14-.8.7-1.29,1.11l-1.23-1.21c-.09-.09-.33-.33,0-.75C86.44,109.21,87.05,108.64,87.51,108.23Zm1.72,2.27a1,1,0,0,0,.06-1.54,7.07,7.07,0,0,0-1-.82h4.07l-.54.53a1.07,1.07,0,0,0-.3.75.78.78,0,0,0,.33.57l.67.52.33-.41-.68-.53c-.1-.08-.12-.14-.12-.19a.57.57,0,0,1,.14-.34l.87-.83a7.09,7.09,0,0,1,1.05.77s.19.18,0,.58a2,2,0,0,1-.33.48l-1.63,1.76a8.26,8.26,0,0,0-3.29-.5l-.58,0C88.66,111,89.1,110.64,89.23,110.5Zm-.69-2.89,1.35-.81a4.45,4.45,0,0,1,1.37-.6c.07,0,1.68-.32,1.8-1.26a1.62,1.62,0,0,0,0-.44h3.58v.26a7.43,7.43,0,0,0,0,.89c0,.14,0,.36,0,.59a2.4,2.4,0,0,0,.18,1.37ZM100,107.1a1.24,1.24,0,0,0,0-1.08,11,11,0,0,0-.66-1.26c-.06-.11-.11-.2-.17-.29h3.78v1.06h-1.23v2.08H99.47A1.39,1.39,0,0,0,100,107.1Zm2.57-32.59a10.36,10.36,0,0,0,1.46-.68,17.38,17.38,0,0,0,1.65.91,1,1,0,0,1,0,.16,3.31,3.31,0,0,0-.22.85,5.16,5.16,0,0,0,1.25,3.1,2.46,2.46,0,0,1,.61,1.16.69.69,0,0,1-.22.52,2.76,2.76,0,0,1-1.64.5v-.11C105.32,79.54,104.91,77.38,102.55,74.51Zm4.7,6.51v1.84h-1.86V81.55A3.49,3.49,0,0,0,107.25,81Zm-1.86,11.82a3.18,3.18,0,0,0,.42.5,2.77,2.77,0,0,0,2,.84h0a2.44,2.44,0,0,0,2.52-2.26,3,3,0,0,0-.12-.89l-.18-.42c-.54-.94-.35-2.75.34-3.24a1.14,1.14,0,0,1,.92-.22.77.77,0,0,1,.52.43.7.7,0,0,1,0,.69.58.58,0,0,1-.56.29v.53h0a1.17,1.17,0,0,0,1-.54,1.24,1.24,0,0,0,0-1.21,1.34,1.34,0,0,0-.87-.71,1.66,1.66,0,0,0-1.35.31,3.18,3.18,0,0,0-.82,2.94,2.39,2.39,0,0,0-1-.22,1.52,1.52,0,0,0-1.37.74,1.39,1.39,0,0,0,0,1.37,1.22,1.22,0,0,0,1.12.59h0v-.52a.72.72,0,0,1-.67-.33.86.86,0,0,1,0-.85,1,1,0,0,1,.91-.47,1.62,1.62,0,0,1,1.19.41,1.85,1.85,0,0,1,.42,1.31,1.93,1.93,0,0,1-2,1.74h0a2.28,2.28,0,0,1-1.64-.68,2.39,2.39,0,0,1-.79-1.82v-.58l4.61-5h3.13V85h-3.36l-4.38,4.8v-6.4h7.74v-.53h-1.45V76.54h6.06c-1.13.85-3.47,2.64-3.69,2.84a2,2,0,0,0-.7,1.65,1.57,1.57,0,0,0,.49,1.16,2,2,0,0,0,1.34.59,1.53,1.53,0,0,0,1.59-1.4,1.37,1.37,0,0,0-.4-1,1,1,0,0,0-.81-.29,1,1,0,0,0-.9,1h.53c0-.07.06-.44.39-.46a.56.56,0,0,1,.42.14.84.84,0,0,1,.24.61c0,.74-.79.9-1.06.9a1.48,1.48,0,0,1-1-.44,1.08,1.08,0,0,1-.33-.79,1.4,1.4,0,0,1,.52-1.25c.26-.24,4.28-3.23,4.28-3.23h.24a35.53,35.53,0,0,1-13.52,23V92.84Zm2.12-29.27a12.48,12.48,0,0,0-1.6-3,18.07,18.07,0,0,1,1.76-3.55,18.65,18.65,0,0,1,1.72,3.22A11.25,11.25,0,0,0,107.51,63.57Zm2.12-2.67a21.53,21.53,0,0,1,1.47,7.82V82.86h-3.33V65.12a8.41,8.41,0,0,1,1.85-4.22Zm2,8.18h3.07V76h-3.07Zm-4.39-12.59a20,20,0,0,0-1.9,3.76V54.42A11.51,11.51,0,0,1,107.28,56.49Zm0,8.62h0V78.8l-.18-.26a4.7,4.7,0,0,1-1.15-2.79,3.16,3.16,0,0,1,.19-.68,8.15,8.15,0,0,0,.52-2.59,8.55,8.55,0,0,0-1.25-3.62v-8A9,9,0,0,1,107.25,65.11Zm-1.15,7.36a6,6,0,0,1-.28,1.76,9.09,9.09,0,0,1-2-1.21c-.08-.1,0-.54.11-.84.15-.56.31-1.14,0-1.53a2,2,0,0,0-1.53-.81,2.92,2.92,0,1,0-5.46-1.44,3,3,0,0,0,1.22,2.37,2.22,2.22,0,0,0-.31.71,3.49,3.49,0,0,1-.61,1.86,4.34,4.34,0,0,1-.49.35c-.07,0-.25.11-.3.19s0,.13.06.16h0a1.07,1.07,0,0,0,.2.14,8.94,8.94,0,0,0,3.2.76,16.61,16.61,0,0,1-.47,1.68,19.55,19.55,0,0,1-2.63,5.11A12.16,12.16,0,0,1,94.73,84l-.25.21a30.11,30.11,0,0,0-2.19,2.14,8.07,8.07,0,0,0-1,1.41A4.44,4.44,0,0,1,90,89.37a4.88,4.88,0,0,0-2.39,3.19,15,15,0,0,1-1.19-1.38c-.48-.65-.47-2.57-.21-4.13.13-.77.22-1.6.31-2.53.89-.46,1.46-2,1.85-3.39a5.37,5.37,0,0,1,1.52-2.37,17,17,0,0,0,2.71-3,11.32,11.32,0,0,0,1.35-3.06,3.09,3.09,0,0,0,2.38-.75c.49-.46.68-.87.57-1.24s-.68-.77-1.73-1l-.65-.16.39-.16a2.16,2.16,0,0,1,1.1-.26l0-.52a2.59,2.59,0,0,0-1.33.3c-.67.25-1.15.48-1.21.5l-.29.11a4.19,4.19,0,0,1-2.59.26,15.72,15.72,0,0,1,1.85-2,17.38,17.38,0,0,1,2.66-1l.73-.23A5.34,5.34,0,0,0,98,64.89a4.51,4.51,0,0,1,2.54-1.34,2,2,0,0,1,1.09.11,9.5,9.5,0,0,0,2.25,3.83c.11.13.23.26.25.3l.08.13C105.79,70.5,106.11,71.82,106.1,72.47Zm-1.25-23.12H99v-5c0-1,2-2.72,3-3.41a22.6,22.6,0,0,1,2.86,2.16Zm0-10.75h-1.22v.53h1.22v3.26a21.05,21.05,0,0,0-2.57-1.88V38.38h-.55v2.1A13.23,13.23,0,0,0,99,43.08V34.77L104.85,38Zm0,11.28v.64a16,16,0,0,1-4.3,1.32,6.82,6.82,0,0,0-2.21-2Zm-6.4-.53h-.92V34.51l.55-.26.37.21V49.35Zm2.92,6.56a6.35,6.35,0,0,1-1.11,3.59,1.52,1.52,0,0,1-.9.06c-1.63-.54-1.24-2.53-1-3.48l0-.18a3.44,3.44,0,0,0-.7-2.53,1.9,1.9,0,0,0-1.33-.81,2.33,2.33,0,0,0-2,.76l0,0a1.86,1.86,0,0,0-2.42-.55c-1.31.54-1.45,2.52-1.39,3.17a1.13,1.13,0,0,1-.25.69,2.17,2.17,0,0,0-.42,1.16,2.52,2.52,0,0,0,.49,1.36c.23.39.38.66.28.81s-.37.27-.69.22a7.08,7.08,0,0,1-1.23-4.32,6.39,6.39,0,0,1,12.77,0ZM97,42.88a13.61,13.61,0,0,0-2.57-2.4v-2.1h-.55v2.13A29.42,29.42,0,0,0,91,42.82V39.13h1.35V38.6H91V37.48l6-2.72ZM83.39,29.51h-.9V30h.9v1.15h-6c1-1.73,3.31-2.92,6-3ZM40.52,71.24A43.4,43.4,0,0,1,81.15,28a6.44,6.44,0,0,0-4.33,3.21H75.74v1.93h.66v3.79l-6.85-3.13V30.71h-.43v3l-6.61,3.62V35.18H62l0,3.42H60.7v.53H62v4.15a35.79,35.79,0,0,0,0,56.51v5.74H60.33v2.09A43.37,43.37,0,0,1,40.52,71.24Zm20,20.54a1.39,1.39,0,0,0,0-1.38,1.51,1.51,0,0,0-1.37-.74,2.46,2.46,0,0,0-1,.22,3.15,3.15,0,0,0-.82-2.94A1.66,1.66,0,0,0,56,86.63a1.34,1.34,0,0,0-.87.71,1.21,1.21,0,0,0,0,1.21,1.15,1.15,0,0,0,1,.54h0v-.53a.71.71,0,0,1-.57-.29.73.73,0,0,1,0-.69.78.78,0,0,1,.53-.43,1.15,1.15,0,0,1,.92.22c.69.49.88,2.31.33,3.24a2.83,2.83,0,0,0-.3,1.31,2.44,2.44,0,0,0,2.53,2.26h0a2.83,2.83,0,0,0,2-.83,4.22,4.22,0,0,0,.39-.47v6.23A34.61,34.61,0,0,1,49.06,76.54h.13s3.55,3,3.83,3.23A1.4,1.4,0,0,1,53.55,81a1.12,1.12,0,0,1-.33.79,1.41,1.41,0,0,1-1,.38c-.27,0-1-.1-1-.84a.81.81,0,0,1,.23-.61.49.49,0,0,1,.41-.13c.33,0,.42.38.42.45h.53a1,1,0,0,0-.93-1,1.06,1.06,0,0,0-.8.29,1.32,1.32,0,0,0-.39,1,1.47,1.47,0,0,0,1.57,1.35,2,2,0,0,0,1.35-.54A1.61,1.61,0,0,0,54.08,81a2,2,0,0,0-.7-1.65l-3.3-2.83h5.75v6.32H54.26v.53H62v6.4L57.62,85H54.26v.53h3.12l4.62,5V91a2.49,2.49,0,0,1-.76,2,2.28,2.28,0,0,1-1.64.68h0a1.93,1.93,0,0,1-2-1.74A1.86,1.86,0,0,1,58,90.6a1.6,1.6,0,0,1,1.18-.41,1,1,0,0,1,.92.47.89.89,0,0,1,0,.85.75.75,0,0,1-.67.33v.53a1.25,1.25,0,0,0,1.13-.59ZM62,49.88V54c-1.88,1.36-4.46,5-5.62,9.85V57.64a.34.34,0,0,0,.3.18.35.35,0,0,0,.35-.35.35.35,0,0,0-.35-.35.35.35,0,0,0-.3.19v-.84a.35.35,0,1,0,.3-.52.35.35,0,0,0-.3.19v-.85a.34.34,0,0,0,.3.18.35.35,0,1,0,0-.69.34.34,0,0,0-.3.18V54.6h-.13a.34.34,0,0,0,.19-.3.35.35,0,0,0-.7,0,.34.34,0,0,0,.19.3H55.8V55a.34.34,0,0,0-.32-.21.35.35,0,1,0,0,.69.34.34,0,0,0,.32-.21v.91a.34.34,0,0,0-.32-.22.35.35,0,1,0,0,.7.34.34,0,0,0,.32-.22v.91a.35.35,0,0,0-.67.13.35.35,0,0,0,.35.35.34.34,0,0,0,.32-.21s0,10.51,0,11.25H52.75v-3.4a.35.35,0,1,0,.3-.52.35.35,0,0,0-.3.19v-.85a.35.35,0,0,0,.3.19.35.35,0,0,0,.35-.35.35.35,0,0,0-.35-.35.34.34,0,0,0-.3.18V63.1a.34.34,0,0,0,.3.18.35.35,0,0,0,.35-.35.35.35,0,0,0-.35-.35.35.35,0,0,0-.3.19v-.36h-.13a.35.35,0,0,0,.19-.3.35.35,0,0,0-.7,0,.35.35,0,0,0,.19.3h-.13v.39a.34.34,0,0,0-.32-.22.35.35,0,0,0-.35.35.35.35,0,0,0,.35.35.34.34,0,0,0,.32-.22V64a.34.34,0,0,0-.32-.21.35.35,0,0,0-.35.35.35.35,0,0,0,.35.35.34.34,0,0,0,.32-.22v.91a.34.34,0,0,0-.32-.22.35.35,0,0,0,0,.7.34.34,0,0,0,.32-.22V69l-2.43,2.26.39.42,2.06-2V76H49A35.18,35.18,0,0,1,62,44v5.39H60.53v.53ZM59.6,65.45V82.86H56.38v-14a20,20,0,0,1,1.43-7.64,8.28,8.28,0,0,1,1.78,4.06,1,1,0,0,0,0,.18Zm-1.54-4.86a18.65,18.65,0,0,1,1.72-3.22,17.54,17.54,0,0,1,1.76,3.55,12.67,12.67,0,0,0-1.65,3A10.86,10.86,0,0,0,58.06,60.59Zm2.07,4.85s0,0,0-.15a9.42,9.42,0,0,1,1.86-4v21.6H60.13V65.44Zm0-8.63a11.13,11.13,0,0,1,1.83-2v5.58A20.83,20.83,0,0,0,60.17,56.81Zm-4.33,12.6V76h-3.1V69.42Zm5,36.64h4.59v1.56H60.87Zm.3,2.09h7.27a1.44,1.44,0,0,0-.21,1.9c.13.17,1.54,1.74,2.1,2.37A43.23,43.23,0,0,1,61.16,108.14Zm8.92,3.21c-.68-.76-1.36-1.52-1.43-1.62a.9.9,0,0,1,.17-1.23,1.25,1.25,0,0,1,.58-.36h.51l1.64,1.72a1.47,1.47,0,0,0-.87.34A1.55,1.55,0,0,0,70.08,111.35Zm.9,1a1.28,1.28,0,0,1-.38-.91,1.05,1.05,0,0,1,.41-.79,1,1,0,0,1,.83-.22.73.73,0,0,1,.54.43.32.32,0,0,1,0,.14l.53,0a1,1,0,0,0-.07-.34,1.22,1.22,0,0,0-.41-.54l-1.82-2H75.1l-1.12,1,.36.39,1.53-1.43h0v3.6l-.39.13-.2.07-.82.29a8.13,8.13,0,0,1-2.29.63A1.79,1.79,0,0,1,71,112.31Zm2.17.93c.48-.13,1-.32,1.53-.51l.81-.29.2-.07a8.13,8.13,0,0,1,3.31-.54,24.44,24.44,0,0,1,2.89.23c.21.34.91,1.59,1.43,2.51A43.2,43.2,0,0,1,73.15,113.24Zm10.57,1c-1.49-2.64-1.5-2.65-1.7-2.65l-.86-.11v-.92h1.25V110H81.16v-1.87h5.66c-.35.33-.77.72-.85.81a1,1,0,0,0,0,1.47l1,1c-.42,0-.88.11-1.38.19C85.42,111.62,85.41,111.62,83.72,114.2Zm.38.38c.61-.93,1.41-2.14,1.63-2.45a14.17,14.17,0,0,1,2.84-.34,9.72,9.72,0,0,1,3.62.58l.2.07.81.29c.5.18,1,.37,1.47.49A43.37,43.37,0,0,1,84.1,114.58Zm12.8-2.27a1.81,1.81,0,0,1-1.23.55,8.13,8.13,0,0,1-2.29-.63L92.7,112l1.47-1.59a2.11,2.11,0,0,0,.57-1.24.82.82,0,0,0-.26-.57c-.19-.16-.38-.32-.56-.45h3.34l-1.84,2a1.08,1.08,0,0,0-.41.53.8.8,0,0,0-.07.34,3,3,0,0,1,.52,0,.83.83,0,0,1,0-.15.71.71,0,0,1,.54-.43,1,1,0,0,1,.83.22,1.08,1.08,0,0,1,.41.79A1.28,1.28,0,0,1,96.9,112.31Zm.3-2.11a1.47,1.47,0,0,0-.87-.34L98,108.14h.52a1.34,1.34,0,0,1,.58.36.88.88,0,0,1,.16,1.23c-.07.1-.74.86-1.42,1.62A1.58,1.58,0,0,0,97.2,110.2Zm.42,2.14c.59-.66,1.91-2.13,2-2.3a1.43,1.43,0,0,0-.21-1.9h7.14A42.88,42.88,0,0,1,97.62,112.34Zm9.22-4.72h-4.59v-1.56h4.59Zm.52,0v-2.11h-2v-5.29a35.81,35.81,0,0,0,0-57.43V39.13h1.35V38.6h-1.35V35.18h-.54v2.17l-6.57-3.59v-3h-.43v3.07L91,36.9V33.12h.62V31.19h-1a6.47,6.47,0,0,0-4.47-3.25,43.33,43.33,0,0,1,21.27,79.7Z"/></svg>